<?xml version="1.0" encoding="UTF-8"?>
<svg id="Layer_1" data-name="Layer 1" xmlns="http://www.w3.org/2000/svg" xmlns:xlink="http://www.w3.org/1999/xlink" viewBox="0 0 496 412">
  <defs>
    <style>
      .cls-1 {
        fill: url(#linear-gradient);
      }

      .cls-2 {
        fill: #866216;
      }

      .cls-3 {
        fill: #253948;
      }
    </style>
    <linearGradient id="linear-gradient" x1="-274.13" y1=".44" x2="-214.23" y2="178.21" gradientTransform="translate(488 28)" gradientUnits="userSpaceOnUse">
      <stop offset="0" stop-color="#fff0a5"/>
      <stop offset=".19" stop-color="#dec97e"/>
      <stop offset=".45" stop-color="#b89d51"/>
      <stop offset=".68" stop-color="#9c7c31"/>
      <stop offset=".87" stop-color="#8c691d"/>
      <stop offset="1" stop-color="#866216"/>
    </linearGradient>
  </defs>
  <path class="cls-1" d="M284.57,110.22c-.09-1.84-1.39-3.27-2.9-3.2-1.51,.08-2.66,1.63-2.57,3.47,.09,1.84,1.39,3.27,2.9,3.2s2.66-1.63,2.57-3.47Zm-5.63,11.01c-.51,1.86,.33,3.7,1.86,4.12,1.53,.42,3.18-.75,3.69-2.61,.51-1.86-.33-3.7-1.86-4.12-1.53-.42-3.18,.75-3.69,2.61Zm12.02-11.3c.19-1.83-.71-3.43-2-3.56-1.29-.13-2.49,1.25-2.68,3.08-.19,1.83,.71,3.43,2,3.56,1.29,.13,2.49-1.25,2.68-3.08Zm-31.09,55.3c1.41-.76,2.07-2.28,1.47-3.39-.6-1.11-2.23-1.39-3.65-.63-1.41,.76-2.07,2.28-1.47,3.39s2.23,1.39,3.65,.63Zm5.12-5.25c1.29-.96,1.72-2.56,.97-3.57-.75-1.01-2.41-1.05-3.7-.09-1.29,.96-1.72,2.56-.97,3.57s2.41,1.05,3.7,.09Zm5.03-6.31c1.14-1.14,1.33-2.78,.44-3.67-.89-.89-2.54-.69-3.67,.45-1.14,1.14-1.33,2.78-.44,3.67,.89,.89,2.54,.69,3.67-.45Zm4.22-6.26c1-1.26,1.01-2.92,.02-3.7s-2.6-.4-3.6,.86c-1,1.26-1.01,2.92-.02,3.7,.99,.79,2.6,.4,3.6-.86Zm13.45-30.94c.48-1.78-.22-3.52-1.58-3.89-1.36-.37-2.85,.77-3.33,2.55-.48,1.78,.22,3.52,1.58,3.89,1.36,.37,2.85-.77,3.33-2.55Zm-8.78-8.82c1.59-.21,2.68-1.88,2.44-3.75-.24-1.87-1.73-3.21-3.32-3.01s-2.68,1.88-2.44,3.75c.24,1.87,1.73,3.21,3.32,3.01Zm11.41-9.62c-.17-1.45-1.14-2.53-2.16-2.41-1.02,.12-1.71,1.4-1.53,2.85,.17,1.45,1.14,2.53,2.16,2.41,1.02-.12,1.71-1.4,1.53-2.85Zm-18.91,.87c.49,1.85,2.13,3.02,3.66,2.62,1.54-.41,2.39-2.23,1.9-4.08-.49-1.85-2.13-3.02-3.66-2.62s-2.39,2.23-1.9,4.08Zm7.93-20.17c-.68-1.41-2.16-2.1-3.31-1.54-1.14,.56-1.51,2.15-.83,3.55s2.16,2.1,3.31,1.54c1.14-.56,1.51-2.15,.83-3.55Zm-7.79-8.09c-1.06,.79-1.14,2.46-.19,3.74,.95,1.28,2.58,1.67,3.64,.88,1.06-.79,1.14-2.46,.19-3.74-.95-1.28-2.58-1.67-3.64-.88Zm11.11,33.37c.09,1.84,1.32,3.28,2.74,3.2,1.42-.07,2.5-1.62,2.41-3.46-.09-1.84-1.32-3.28-2.74-3.2s-2.5,1.62-2.41,3.46Zm-5.59-15.16c-1.39,.37-2.18,1.93-1.77,3.48,.41,1.56,1.87,2.52,3.26,2.16,1.39-.37,2.18-1.93,1.77-3.48-.41-1.56-1.87-2.52-3.26-2.16Zm4.39,6.13c-1.31,.17-2.21,1.63-2,3.26,.21,1.63,1.45,2.82,2.76,2.65,1.31-.17,2.21-1.63,2-3.26s-1.45-2.82-2.76-2.65Zm-10.14-8.99c.73,1.51,2.41,2.2,3.74,1.56s1.81-2.39,1.08-3.9c-.73-1.51-2.41-2.2-3.74-1.56-1.33,.65-1.81,2.39-1.08,3.9Zm-61.46,50.28c1.18-.46,1.65-2.04,1.07-3.54-.58-1.5-2.01-2.34-3.19-1.88-1.18,.46-1.65,2.04-1.07,3.54,.58,1.5,2.01,2.34,3.19,1.88Zm-3.9-6.13c1.07-.38,1.51-1.88,.99-3.36-.52-1.48-1.82-2.37-2.89-1.99-1.07,.38-1.51,1.88-.99,3.36,.52,1.48,1.82,2.37,2.89,1.99Zm13.74,18.11c.99-.79,.98-2.44-.02-3.7-1-1.26-2.61-1.64-3.6-.86-.99,.79-.98,2.44,.02,3.7,1,1.26,2.61,1.64,3.6,.86Zm-5.12-5.82c1.09-.64,1.3-2.28,.49-3.67-.82-1.38-2.36-1.99-3.45-1.34-1.09,.64-1.3,2.28-.49,3.67,.82,1.38,2.36,1.99,3.45,1.34Zm-12.13-19.14c.98-.29,1.42-1.74,.98-3.25s-1.6-2.49-2.58-2.2c-.98,.29-1.42,1.74-.98,3.25,.44,1.5,1.6,2.49,2.58,2.2Zm-5.21-8.53c.12,1.46,.96,2.58,1.87,2.5,.91-.08,1.56-1.32,1.43-2.78-.12-1.46-.96-2.58-1.87-2.5-.91,.08-1.56,1.32-1.43,2.78Zm4.94-19.15c-1.02-.12-1.99,.96-2.16,2.41-.17,1.45,.51,2.73,1.53,2.85,1.02,.12,1.99-.96,2.16-2.41,.17-1.45-.51-2.73-1.53-2.85Zm-2.8,14.29c.19,1.83,1.39,3.21,2.68,3.08,1.29-.13,2.19-1.73,2-3.56-.19-1.83-1.39-3.21-2.68-3.08s-2.19,1.73-2,3.56Zm36.27,59.85c1.52,.52,3.05,.07,3.42-1.01,.37-1.08-.56-2.38-2.09-2.9-1.52-.52-3.05-.07-3.42,1.01-.37,1.08,.56,2.38,2.09,2.9Zm5.08,4.51c1.58,.27,3.01-.32,3.18-1.32s-.98-2.03-2.56-2.3c-1.58-.27-3.01,.32-3.18,1.32-.17,1,.98,2.03,2.56,2.3Zm4.43,3.53c1.4,0,2.54-.72,2.54-1.61s-1.14-1.61-2.54-1.61-2.54,.72-2.54,1.61,1.14,1.61,2.54,1.61Zm-21.18-23.71c.89-.89,.7-2.54-.44-3.67-1.14-1.14-2.78-1.34-3.67-.45-.89,.89-.7,2.54,.44,3.67,1.14,1.14,2.78,1.34,3.67,.45Zm25.61,20.17c1.58-.27,2.73-1.3,2.56-2.3s-1.59-1.59-3.18-1.32c-1.58,.27-2.73,1.3-2.56,2.3,.17,1,1.59,1.59,3.18,1.32Zm-47.08-70.53c-.09,1.84,.99,3.39,2.41,3.46,1.42,.07,2.65-1.36,2.74-3.2s-.99-3.39-2.41-3.46-2.65,1.36-2.74,3.2Zm22.82,56.22c1.29,.96,2.95,.92,3.7-.09s.32-2.61-.97-3.57-2.95-.92-3.7,.09c-.75,1.01-.32,2.61,.97,3.57Zm5.12,5.25c1.41,.76,3.05,.48,3.65-.63,.6-1.11-.06-2.63-1.47-3.39s-3.05-.48-3.65,.63c-.6,1.11,.06,2.63,1.47,3.39Zm24.22,4.55c1.52-.52,2.46-1.82,2.09-2.9s-1.9-1.53-3.42-1.01-2.46,1.82-2.09,2.9,1.9,1.53,3.42,1.01Zm-9.51-139.46c-1.4,0-2.54,.72-2.54,1.61s1.14,1.61,2.54,1.61,2.54-.72,2.54-1.61-1.14-1.61-2.54-1.61Zm23.72,23.51c-1.2-.69-2.64-.45-3.22,.54-.57,.99-.06,2.36,1.14,3.06,1.2,.69,2.64,.45,3.22-.54,.57-.99,.06-2.36-1.14-3.05Zm-40.83,1.96c.51,1.34,2.19,1.95,3.76,1.36s2.42-2.17,1.92-3.51c-.51-1.34-2.19-1.95-3.76-1.36-1.57,.59-2.42,2.16-1.92,3.51Zm3.72-12.92c-1.22,.46-1.91,1.62-1.55,2.59,.37,.97,1.65,1.38,2.87,.91,1.22-.46,1.91-1.62,1.55-2.59-.37-.97-1.65-1.38-2.87-.91Zm4.44-4.79c-1.26,.26-2.14,1.18-1.96,2.06,.18,.88,1.35,1.39,2.61,1.13,1.26-.26,2.14-1.18,1.96-2.06-.18-.88-1.35-1.39-2.61-1.13Zm13.42-4.21c-1.19-.24-2.29,.23-2.46,1.07-.17,.83,.66,1.7,1.85,1.94,1.19,.24,2.29-.23,2.46-1.07,.17-.83-.66-1.7-1.85-1.94Zm8.93,9c-1.22-.46-2.51-.05-2.87,.91-.37,.97,.33,2.13,1.55,2.59s2.51,.05,2.87-.91c.37-.97-.32-2.13-1.55-2.59Zm-4.44-4.79c-1.26-.26-2.43,.25-2.61,1.13s.7,1.8,1.96,2.06c1.26,.26,2.43-.25,2.61-1.13,.18-.88-.7-1.8-1.96-2.06Zm-13.42-4.21c-1.19,.24-2.02,1.11-1.85,1.94,.17,.83,1.27,1.31,2.46,1.07,1.19-.24,2.02-1.11,1.85-1.94-.17-.83-1.27-1.31-2.46-1.07Zm-30.05,38.58c-.97-.47-2.29,.23-2.95,1.58-.66,1.35-.4,2.82,.58,3.29,.97,.47,2.29-.23,2.95-1.58,.66-1.35,.4-2.82-.58-3.29Zm4.31-6.39c-.95-.71-2.44-.32-3.32,.87-.89,1.19-.83,2.73,.12,3.43s2.44,.32,3.32-.87c.89-1.19,.83-2.73-.12-3.43Zm-7.17,22.52c1.14,.56,2.62-.13,3.31-1.54,.68-1.41,.31-3-.83-3.55-1.14-.56-2.62,.13-3.31,1.54-.68,1.41-.31,3,.83,3.55Zm15.8-26.46c.77,1.07,2.41,1.2,3.67,.3s1.65-2.51,.88-3.58c-.77-1.07-2.41-1.2-3.67-.3s-1.65,2.51-.88,3.58Zm-7.23-1.72c-1.06,1.06-1.26,2.57-.45,3.38,.81,.81,2.32,.61,3.38-.44,1.06-1.06,1.26-2.57,.45-3.38-.81-.81-2.32-.61-3.38,.45Zm10.08-12.3c-1.24,.72-1.81,2.06-1.27,2.99,.54,.93,1.98,1.11,3.23,.39s1.81-2.06,1.27-2.99c-.54-.93-1.98-1.11-3.23-.39Zm-4.99,5.73c-1.2,.69-1.71,2.06-1.14,3.05,.57,.99,2.01,1.24,3.22,.54,1.2-.69,1.71-2.06,1.14-3.06-.57-.99-2.01-1.24-3.22-.54Zm72.76,58.18c.78,0,1.42-1.17,1.44-2.63s-.6-2.66-1.37-2.67c-.78,0-1.42,1.17-1.44,2.63s.6,2.66,1.37,2.67Zm-13.73,24.28c1.18,.46,2.6-.38,3.19-1.88,.58-1.5,.11-3.08-1.07-3.54-1.18-.46-2.6,.38-3.19,1.88s-.11,3.08,1.07,3.54Zm6.78-8.12c.52-1.48,.08-2.98-.99-3.36s-2.36,.51-2.89,1.99c-.52,1.48-.08,2.98,.99,3.36,1.07,.38,2.36-.51,2.89-1.99Zm3.2-7.06c.44-1.5,0-2.96-.98-3.25-.98-.29-2.14,.7-2.58,2.2s0,2.96,.98,3.25c.98,.29,2.14-.7,2.58-2.2Zm2.63-6.33c.12-1.46-.52-2.7-1.43-2.78-.91-.08-1.75,1.04-1.87,2.5-.12,1.46,.52,2.7,1.43,2.78s1.75-1.04,1.87-2.5Zm-17.95,.87c-.5,1.84,.38,3.69,1.98,4.12,1.59,.43,3.29-.71,3.79-2.55,.5-1.84-.38-3.69-1.98-4.12-1.59-.43-3.29,.71-3.79,2.55Zm.84,11.4c-1.14,1.39-1.11,3.29,.06,4.25,1.17,.96,3.04,.6,4.17-.79,1.14-1.39,1.11-3.29-.06-4.25s-3.04-.6-4.17,.79Zm-.23,15.4c1.09,.64,2.63,.04,3.45-1.34s.6-3.03-.49-3.67c-1.09-.64-2.63-.04-3.45,1.34-.82,1.38-.6,3.03,.49,3.67Zm-4.04-10.01c-1.56,1.18-1.99,3.24-.96,4.6s3.13,1.51,4.68,.33c1.56-1.18,1.99-3.24,.96-4.6s-3.13-1.51-4.68-.33Zm8.35-48.94c-1.14,.56-1.51,2.15-.83,3.55,.68,1.41,2.16,2.1,3.31,1.54s1.51-2.15,.83-3.55c-.68-1.41-2.16-2.1-3.31-1.54Zm2.56-9.46c-.66-1.35-1.97-2.05-2.95-1.58-.97,.47-1.23,1.95-.58,3.29,.66,1.35,1.98,2.05,2.95,1.58,.97-.47,1.23-1.95,.58-3.29Zm8.65,26.75c-1.18,.06-2.06,1.53-1.97,3.28,.09,1.75,1.11,3.12,2.29,3.07,1.18-.06,2.06-1.53,1.97-3.28-.09-1.75-1.11-3.12-2.29-3.07Zm-20.68-40.82c-.81,.81-.61,2.32,.45,3.38,1.06,1.06,2.57,1.26,3.38,.44,.81-.81,.61-2.32-.45-3.38-1.06-1.06-2.57-1.26-3.38-.45Zm4.78,6.1c-.95,.71-1,2.25-.12,3.43s2.37,1.58,3.32,.87,1-2.25,.12-3.43c-.89-1.19-2.37-1.58-3.32-.87Zm9.03,23.57c-1.05,.28-1.58,1.67-1.2,3.12,.38,1.45,1.54,2.4,2.59,2.12s1.59-1.67,1.2-3.12c-.38-1.45-1.54-2.4-2.59-2.12Zm8.39,3.07c-.28-1.41-1.22-2.4-2.09-2.23s-1.35,1.45-1.07,2.86c.28,1.41,1.22,2.4,2.09,2.23,.87-.17,1.35-1.45,1.07-2.86Zm-5.36-8.05c-1.05,.28-1.59,1.67-1.2,3.12,.38,1.45,1.54,2.4,2.59,2.12,1.05-.28,1.59-1.67,1.2-3.12-.38-1.45-1.54-2.4-2.59-2.12Zm-77.89,40.7c1.53-.42,2.36-2.26,1.86-4.12-.51-1.86-2.16-3.03-3.69-2.61s-2.36,2.26-1.86,4.12c.51,1.86,2.16,3.03,3.69,2.61Zm32.03,8.85c-.42-.45-.82-.92-1.23-1.38-.84,.64-3.19,2.25-6.89,4.45-2.32,1.38-4.26,3.32-5.49,5.73l-.47,.9c3.42-1.65,10.77-5.57,14.07-9.71Zm-11.59-28.78c.55-.72,.97-1.51,.84-2.39l-1.17-.18c-.7-.11-1.35,.39-1.43,1.09,0,.05,0,.1,0,.15,0,.63,.47,1.17,1.11,1.24l.66,.08Zm-2.98,36.78c.3-.71,.25-.51,.49-.98,.49-.97,.7-2.06,.58-3.14-.18-1.73-.16-2.48-.12-2.64-1.81,3.65-.96,6.76-.96,6.76Zm-3.76-65.92c-1.25-.93-3.1-.55-4.14,.84s-.87,3.28,.38,4.21c1.25,.93,3.1,.55,4.14-.84s.87-3.28-.38-4.21Zm6.62,57.8c-.13-.85-.24-1.77-.21-2.31,0,0-1.13,2.05-.62,6.2,.15-.33,.27-.59,.38-.82,.45-.96,.61-2.03,.45-3.07Zm4.52-41.26c.63-.32,1.15-.72,1.53-1.22-.34-.15-.67-.28-1-.4-.89-.31-1.52,.9-.75,1.46,.08,.05,.15,.11,.22,.16Zm-4.68,8.18c.32,.06,.63,.12,.94,.18,.73-.72,1.52-1.51,1.61-2.29-.77-.07-1.52-.09-2.26-.08-1.28,.02-1.52,1.83-.3,2.19Zm2.86-4.32s.08,.04,.11,.06l1.38-1.46c-.31-.09-.6-.16-.89-.23-.99-.22-1.5,1.14-.61,1.62Zm.64,33.66c.27-.36,.51-.7,.75-1.01,.62-.8,.84-1.84,.61-2.83-.22-.93-.5-1.84-.45-1.92-1.51,1.65-1.11,5.04-.91,5.76Zm-16.16-3.71c1.66-.45,2.6-2.31,2.1-4.15-.5-1.84-2.25-2.97-3.91-2.52-1.66,.45-2.6,2.31-2.1,4.15s2.25,2.97,3.91,2.52Zm-1.84-10.98c-.5-1.84-2.2-2.99-3.79-2.55-1.59,.43-2.48,2.28-1.98,4.12s2.2,2.99,3.79,2.55c1.59-.43,2.48-2.28,1.98-4.12Zm6.95,20.3c.54,1.98,2.38,3.21,4.13,2.77v-7.62l-4.16-2.89,.19-7.4-2.35-4.77v-15.63c-1.19,.34-2.18,1.57-2.38,3.14-.15,1.17,.17,2.26,.78,3-.28-.12-.58-.2-.9-.24-2.13-.27-4.09,1.35-4.39,3.62-.29,2.27,1.19,4.34,3.32,4.62,.42,.05,.84,.03,1.24-.05-.68,1.05-.86,2.49-.37,3.87,.57,1.62,1.91,2.71,3.33,2.91-.92,1.3-.67,3.13,.52,4.42-1.15-.1-2.25,.32-2.93,1.22-1.13,1.49-.66,3.75,1.05,5.04,1.05,.8,2.33,1.04,3.42,.76-.59,.87-.81,2.05-.49,3.23Zm6.94-28.13c0,.53,.43,.94,.95,.94h.05l.63-.03c.37-.65,.58-1.31,.53-1.92l-1.25,.06c-.5,.03-.9,.44-.9,.95Zm2.93,1.53c-.4,.05-.7,.4-.69,.81,.01,.44,.37,.78,.79,.78,.03,0,.06,0,.09,0l1.04-.12c0-.6-.14-1.15-.45-1.57l-.78,.1Zm-1.24,24.73c.27-.52,.57-1.03,.84-1.48,.51-.84,.73-1.83,.55-2.79-.29-1.56-.06-2.67-.06-2.67,0,0-.8,.46-1.39,2.95-.43,1.81-.06,3.04,.07,3.99Zm2.48-1.9c-.4,.57-1.01,1.76-1.01,1.76,2.56-1.79,3.97-2.65,5.33-3.44h0c-.98-.45-2.37-1.22-4.32,1.69Zm.65,1.62c-1.53,.95-2.76,2.31-3.57,3.91,3.31-1.44,8.25-4.65,9.46-5.5-.43-.46-.87-.88-1.36-1.22l-4.52,2.8Zm13.44,48.58c0-.56-.97-1.01-2.16-1.01s-2.16,.45-2.16,1.01,.97,1.01,2.16,1.01,2.16-.45,2.16-1.01Zm1.11,.8c0,.34,.51,.61,1.14,.61s1.14-.27,1.14-.61-.51-.61-1.14-.61-1.14,.27-1.14,.61Zm-4.49,2.96c0,.36,.55,.66,1.22,.66s1.22-.29,1.22-.66-.55-.66-1.22-.66-1.22,.29-1.22,.66Zm8.04-7.42c-.05-.7-1.15-1.18-2.44-1.08-1.29,.1-2.3,.75-2.24,1.44,.05,.7,1.15,1.18,2.44,1.08,1.29-.1,2.3-.75,2.24-1.44Zm72.69-83.53c-6.48,14.61-18.93,37.71-22.59,46.31,2.16-2.28,21.75-23.73,22.59-46.31Zm-10.01-18.61c-1.32,11.49-5.8,29.93-8.21,46.97,4.26-6.4,14.87-30.73,8.21-46.97Zm14.45,42.54c-8.65,10.88-22,23.6-36.33,40.19,7.33-3.92,30.49-20.1,36.33-40.19Zm-86.11,59.97c.05-.7-.95-1.34-2.24-1.44s-2.38,.38-2.44,1.08,.95,1.34,2.24,1.44c1.29,.1,2.38-.38,2.44-1.08Zm-14.25-115.54c-1.8,1.3-2.36,3.59-1.26,5.12,.63,.87,1.66,1.3,2.76,1.28-.76,1.17-.89,2.58-.24,3.68h.54l2.39,1.98v-3.93s-1.36-.07-1.36-.07v-3.14s1.36-.89,1.36-.89l4.42-11.38s.4-1.05,.4-1.05h4.14l1.35-2.1c-.66-1.34-2.43-1.92-4.09-1.28-1.75,.66-2.7,2.41-2.14,3.9,.07,.19,.17,.37,.28,.53-.84-.14-1.75-.06-2.64,.28-2.39,.91-3.68,3.32-2.9,5.39,.14,.36,.33,.68,.57,.97-1.12-.31-2.45-.08-3.58,.73Zm20.62,42.41c-.38,.03-.66,.35-.63,.73,.02,.37,.35,.65,.73,.63,.37-.02,.65-.35,.63-.72-.02-.38-.35-.66-.72-.63Zm-13.64,55.67c1.49,0,2.76-.76,3.27-1.83l.4-15.25-.29,.24s0,0-.02,.01c-2,1.73-4.34,3.63-7.35,6.01l-.44,5.39-1.28-.9-2.22-4.49c-.64,.68-1.03,1.55-1.03,2.5,0,2.16,2.01,3.92,4.48,3.92,.44,0,.86-.06,1.26-.16l.24,.18c-.33,.44-.52,.95-.52,1.5,0,1.59,1.57,2.87,3.51,2.87Zm3.86,21.57c0,.34,.51,.61,1.14,.61s1.14-.27,1.14-.61-.51-.61-1.14-.61-1.14,.27-1.14,.61Zm-17.58-38.27c-.96,1.85-.01,4.25,2.11,5.34,1.06,.55,2.22,.67,3.23,.42h0c2.08-.79,13.29-8.88,17.68-14.12-.99-.26-1.8-.76-2.52-1.37-6.04,6.65-14.85,11.35-16.62,11.96l-2.93-4.94,1.84-.12c.08-.13,.19-.44,.21-.76,.08-1.27-.68-2.6-2.02-3.29-1.74-.89-3.78-.39-4.56,1.12-.78,1.51,0,3.47,1.73,4.36,.9,.47,1.89,.55,2.74,.31-.36,.29-.67,.65-.89,1.08Zm.46-61.42c-.67,1.24-.72,2.63-.23,3.72-1.79-.47-3.79,.46-4.69,2.32-1.02,2.09-.27,4.55,1.67,5.5,.23,.11,.46,.19,.69,.25v-3.11l1.67-1.62,1.99,4.72h1.32s-1.31-4.98-1.31-4.98v-3.77h-1.06v-.62l2.12-1.89,1.46,.05v5.25l3.04,3.55v-6.17l1.29-1.05,.89,1.55h.66l.02-2.53h-3.38s-.02-2.02-.02-2.02l.02-7.72c-1.28,.57-2.15,1.69-2.46,3.14-.26,1.16-.08,2.3,.41,3.21-1.52-.28-3.21,.58-4.09,2.22Zm33.94-30.44c-.3,.37-.47,.81-.53,1.27-.2-.19-.43-.37-.68-.52l-.11,3.44,4.99,6.8,8.42-.03v10.2s-2.18,2.91-2.19,2.95l1.99,1.47v2.61h-2.19v4.83h-3.63v8l2.8,3.74v6.96l5.64,3.56-.15,17.37-.12,.19-7.39,11.63-.98,4.72-3.51,7.24-1.6,.06-.64,1.34,.02,1.2-2.18,1.79v-.86l-.75-1.19,.15-.63h.94l-.03-2.63h-6.96l-.78,1.31-.03,.04s.91,.88,.93,.92l2.52,.5,1.74,1.12v4.03s0,.09,0,.42v.17s.89,0,.89,0l2.07-1.11-.02-1.63,1.74-1.42,.63-.03,.75-1.15,.17-1.02,.43,1.26-.99,1.65-.94,1.55s0,.01,0,.02l-.62,1.04-.03,.02s0,0,0,0l-3.35,3.1-1.72,.11c.37,1.26,1.76,2.19,3.41,2.19,1.94,0,3.51-1.29,3.51-2.87,0-.71-.32-1.36-.84-1.86,.56,.22,1.17,.34,1.82,.34,2.48,0,4.48-1.75,4.48-3.92,0-1.24-.67-2.35-1.7-3.07h.02c1.19,.71,2.84,.78,4.32,.02,2.12-1.1,3.07-3.49,2.11-5.34-.22-.43-.53-.79-.9-1.09,.85,.24,1.84,.16,2.75-.31,1.74-.9,2.51-2.85,1.73-4.36-.65-1.26-2.17-1.82-3.66-1.45,.53-.72,.84-1.61,.88-2.54,.06-.9-.18-1.69-.63-2.31,.9,.03,1.85-.25,2.67-.86,1.51-1.14,2.05-3.03,1.38-4.48,2.01,.43,4.07-.95,4.68-3.16,.62-2.29-.54-4.6-2.6-5.16-.45-.12-.9-.15-1.34-.09,.37-.77,.57-1.68,.57-2.65,0-.67-.14-1.29-.4-1.84,.18,0,.36,0,.55-.03,2.13-.27,3.62-2.34,3.32-4.61-.29-2.28-2.26-3.9-4.39-3.62-.32,.04-.62,.13-.9,.24,.61-.74,.92-1.84,.77-3-.25-1.98-1.75-3.42-3.34-3.21-.48,.06-.92,.27-1.28,.58-.07-.05-.14-.1-.21-.14,.42-.96,.53-2.14,.21-3.33-.44-1.67-1.58-2.91-2.91-3.37,.24-.27,.46-.56,.63-.88,1.08,1.91,3.36,2.73,5.22,1.82,1.94-.95,2.69-3.41,1.67-5.5-.9-1.85-2.88-2.78-4.66-2.33,.51-.78,.76-1.82,.62-2.91-.11-.89-.47-1.68-.98-2.28,.65,.51,1.43,.77,2.24,.66,1.82-.24,3.06-2.2,2.78-4.4-.24-1.86-1.5-3.28-2.99-3.53,.85-.84,.85-2.37-.02-3.55-.19-.25-.41-.47-.64-.65,.56,.04,1.11-.07,1.61-.35,1.55-.89,1.94-3.12,.87-4.99-1-1.74-2.91-2.55-4.42-1.94,.37-1.02,.27-2.3-.39-3.45-1.07-1.87-3.19-2.67-4.75-1.78-.69,.39-1.14,1.05-1.35,1.82-.5-.53-1.11-.9-1.73-1.09l.2-.41c1.07,.2,2.12-.1,2.76-.89,1.02-1.25,.61-3.26-.9-4.48-1.51-1.22-3.55-1.2-4.57,.05Zm5.5-1.56c1.24,.72,2.69,.54,3.23-.39s-.03-2.27-1.27-2.99c-1.24-.72-2.69-.54-3.23,.39-.54,.93,.03,2.27,1.27,2.99Zm-8.54,112.09c0-1.52-1.5-2.75-3.36-2.75s-3.36,1.23-3.36,2.75,1.5,2.75,3.36,2.75,3.36-1.23,3.36-2.75Zm-3.84-75.94c.24-.06,.43-.16,.58-.27,.19-.1,.38-.23,.57-.38-.07-.16-.14-.31-.21-.47-.18-.38-.57-.43-.85-.28,0,0,0,0,0,0h0c-.24,.12-.4,.38-.29,.72,.07,.21,.14,.44,.2,.66,0,0,0,.01,0,.02Zm8.07-36.39c.76-1.42-.01-3.31-1.72-4.23-1.71-.92-3.72-.51-4.48,.91-.44,.83-.36,1.82,.12,2.69l.33,.25h0s.02,.02,.02,.02l2.17,1.64c1.46,.38,2.93-.1,3.56-1.27Zm-14.25,34.86c-.07-.1-.15-.2-.22-.3-.53-.71-1.64-.07-1.31,.75l.1,.25c.57-.09,1.05-.32,1.43-.7Zm6.55-43.7c-1.47-.3-2.87,.44-3.12,1.66-.25,1.22,.75,2.45,2.22,2.75,1.47,.3,2.87-.44,3.12-1.66,.25-1.22-.75-2.45-2.22-2.75Zm-1.41,44.79c-.17,.05-.31,.2-.28,.43,.02,.12,.04,.25,.07,.39,0,0,0,0,0,.01,.31-.03,.56-.15,.74-.37-.03-.08-.06-.16-.09-.23-.08-.21-.28-.27-.45-.23Zm-3.37-41.27c-2.11,0-3.81,1.29-3.81,2.87s1.71,2.87,3.81,2.87c.16,0,.31,0,.46-.02l3.18-2.01c.11-.27,.17-.55,.17-.85,0-1.59-1.71-2.87-3.81-2.87Zm.11,40.12c.07,.24,.14,.49,.21,.73,.48,0,.92-.14,1.32-.39-.14-.31-.27-.58-.39-.81-.35-.66-1.35-.25-1.14,.47Zm-.11-48.29c-1.85,0-3.36,1.13-3.36,2.53s1.5,2.53,3.36,2.53,3.36-1.13,3.36-2.53-1.5-2.53-3.36-2.53Zm-35.17,53.26c-.41,1.56,.38,3.12,1.77,3.48s2.85-.6,3.26-2.16c.41-1.56-.38-3.12-1.77-3.48s-2.85,.6-3.26,2.16Zm30.39-48.61c-1.47,.3-2.47,1.53-2.22,2.75,.25,1.22,1.64,1.96,3.12,1.66s2.47-1.53,2.22-2.75c-.25-1.22-1.64-1.96-3.12-1.66Zm-29.4,36.34c-.68,1.41-.31,3,.83,3.55,1.14,.56,2.62-.13,3.31-1.54,.68-1.41,.31-3-.83-3.55-1.14-.56-2.62,.13-3.31,1.54Zm26.35,10.3c.73-.26,1.36-.7,1.8-1.41-.28-.26-.56-.5-.84-.71-.98-.76-2.23,.48-1.47,1.46,.17,.21,.34,.44,.52,.67Zm-22.2-17.51c-.95,1.28-.86,2.95,.19,3.74s2.69,.39,3.64-.88c.95-1.28,.86-2.95-.19-3.74s-2.69-.39-3.64,.88Zm20.27-24c-1.41,.54-2.19,1.95-1.73,3.15,.46,1.2,1.97,1.75,3.38,1.21,1.41-.54,2.19-1.95,1.73-3.15-.46-1.2-1.97-1.75-3.38-1.21Zm-15.61,17.61c-1.1,1.1-1.22,2.77-.27,3.72,.95,.95,2.62,.83,3.72-.27,1.1-1.1,1.22-2.77,.27-3.72-.95-.95-2.62-.83-3.72,.27Zm3.29,5.03c-1.41,1.41-1.57,3.55-.35,4.77,1.22,1.22,3.35,1.07,4.77-.35,1.41-1.41,1.57-3.55,.35-4.77-1.22-1.22-3.35-1.07-4.77,.35Zm-17.33,40.04c-.09,1.84,1.06,3.4,2.57,3.47,1.51,.08,2.81-1.36,2.9-3.2,.09-1.84-1.06-3.4-2.57-3.47-1.51-.08-2.81,1.36-2.9,3.2Zm-1.53,2.36c-1.36,.37-2.07,2.11-1.58,3.89,.48,1.78,1.98,2.92,3.33,2.55,1.36-.37,2.06-2.11,1.58-3.89-.48-1.78-1.98-2.92-3.33-2.55Zm1.7-22.96c-1.05-.28-2.2,.67-2.59,2.12-.38,1.45,.16,2.84,1.2,3.12s2.2-.67,2.59-2.12c.38-1.45-.16-2.84-1.2-3.12Zm34.35,76.69c1.85,0,3.36-1.23,3.36-2.75s-1.5-2.75-3.36-2.75-3.36,1.23-3.36,2.75,1.5,2.75,3.36,2.75Zm-25.4-28.96c1.56,1.18,3.65,1.03,4.68-.33s.6-3.42-.96-4.6-3.65-1.03-4.68,.33-.6,3.42,.96,4.6Zm-.59-6.06c1.17-.96,1.19-2.86,.06-4.25-1.14-1.39-3.01-1.74-4.18-.79s-1.19,2.86-.06,4.25c1.14,1.39,3.01,1.74,4.18,.79Zm-.93-33.85c-.49,1.85,.36,3.68,1.9,4.08,1.54,.41,3.18-.77,3.66-2.62,.49-1.85-.36-3.68-1.9-4.08s-3.18,.77-3.66,2.62Zm4.57-15.34c-1.33-.65-3,.05-3.74,1.56s-.25,3.25,1.08,3.9,3-.05,3.74-1.56c.73-1.51,.25-3.25-1.08-3.9Zm20.65,29.77c-.03-.42-.14-.79-.39-1.11l-.4,.11c-.65,.18-.47,1.14,.2,1.07l.58-.06Zm-29.6-7.96c-.24,1.87,.85,3.54,2.44,3.75,1.59,.21,3.07-1.14,3.32-3.01,.24-1.87-.85-3.54-2.44-3.75-1.59-.21-3.07,1.14-3.32,3.01Zm47.64,24.09c.29-.6,.29-1.66,.29-1.97-.57,.76-2.55,1.58-8.7,.66-4.66-.7-6.89-.36-8.65,.29-.67,.25-1.34,.63-1.34,.63,0,0,.44-.15,1.11-.27,1.36-.23,3.51-.15,6.53,1,3.86,1.47,6.82,1.56,8.83,1.18,.9-.17,1.57-.74,1.94-1.53Zm.4-4.71c.03-.44-.23-1.34-.23-1.34-.05,.17-.3,.7-1.27,.99-2.24,.68-5.25-.27-8.56-.07-2.74,.16-5.72,.93-8.75,3.42,0,0,3.87-1.98,10.02-1.34,5.29,.55,7.09,.42,7.85-.05,.54-.33,.92-.63,.93-1.58v-.03Zm-1.96,8.06s.05-.08,.08-.12c.02-.02,.03-.05,.04-.07-.03,0-4.57,1.99-9.81-.77-6.19-3.26-8.92-1.46-9.26-1.21,0,0,2.51-.61,6.2,2.48,5.83,4.89,10.58,2.98,12.76-.31Zm-3.34,4.14c-.91,.65-2.53,1.15-2.71,1.2-1.54,.41-2.95,1.2-4,2.4-.82,.94-1.66,1.85-2.74,2.81-.49,.48-1,.95-1.53,1.44,0,.43,.03,1.57,.04,2.37,0,0,7.8-4.99,10.94-10.21Zm-45.61-37.85c-.21,1.63,.68,3.09,2,3.26s2.55-1.01,2.76-2.65c.21-1.63-.68-3.09-2-3.26-1.31-.17-2.55,1.01-2.76,2.65Zm39.05,64.58c2.02,0,3.67-1.18,3.8-2.67l-7.49,.52c.42,1.24,1.92,2.15,3.69,2.15Zm0,8.16c1.85,0,3.36-1.13,3.36-2.53s-1.5-2.53-3.36-2.53-3.36,1.13-3.36,2.53,1.5,2.53,3.36,2.53Zm11.74,7.73c.81-.16,1.41-.64,1.32-1.08-.09-.44-.82-.66-1.63-.5-.81,.16-1.41,.64-1.32,1.08,.09,.44,.82,.66,1.63,.5Zm2.06-138.96c-.47,.81,.05,1.98,1.15,2.61,1.1,.64,2.37,.5,2.84-.31,.47-.81-.05-1.98-1.15-2.61-1.1-.64-2.37-.5-2.84,.31Zm14.76,16.42c-.78,.55-.76,1.93,.04,3.08,.81,1.15,2.1,1.64,2.88,1.09,.78-.55,.76-1.93-.04-3.08-.81-1.15-2.1-1.64-2.88-1.09Zm-14.47-22c.83,.31,1.66,.15,1.84-.35s-.34-1.16-1.17-1.47-1.66-.15-1.84,.35,.34,1.16,1.17,1.47Zm4.93,10.83c-.53,.92-.07,2.18,1.04,2.81,1.1,.64,2.42,.41,2.95-.51s.07-2.18-1.04-2.81-2.42-.41-2.95,.51Zm11.29,5.25c.52-.3,.53-1.23,.04-2.09s-1.31-1.31-1.83-1.01c-.52,.3-.53,1.23-.04,2.09,.49,.86,1.31,1.31,1.83,1.01Zm-4.73-6.12c.42-.42,.2-1.34-.5-2.04-.7-.7-1.61-.93-2.04-.5-.42,.42-.2,1.34,.5,2.04,.7,.7,1.61,.93,2.04,.5Zm-15.99-8.34c-.35,.86,.31,1.95,1.49,2.44,1.18,.48,2.42,.17,2.77-.69,.35-.86-.31-1.95-1.49-2.44s-2.42-.17-2.77,.69Zm14.81,14.99c-.76,.73-.67,2.07,.21,2.99s2.21,1.07,2.98,.33c.76-.73,.67-2.07-.21-2.99-.88-.92-2.21-1.07-2.98-.33Zm-5.34-11.69c.86,.5,1.8,.48,2.1-.04,.3-.52-.15-1.34-1.01-1.84-.86-.5-1.8-.48-2.1,.04-.3,.52,.15,1.34,1.01,1.84Zm-19.05-15.83c.67,0,1.22-.29,1.22-.66s-.55-.66-1.22-.66-1.22,.29-1.22,.66,.55,.66,1.22,.66Zm0,4.11c1.19,0,2.16-.45,2.16-1.01s-.97-1.01-2.16-1.01-2.16,.45-2.16,1.01,.97,1.01,2.16,1.01Zm8.84,2.46c.83,.31,1.66,.15,1.84-.35,.19-.5-.34-1.16-1.17-1.47-.83-.31-1.66-.15-1.84,.35s.34,1.16,1.17,1.47Zm-14.95-.02c.09,.74,1.13,1.22,2.32,1.08,1.19-.14,2.09-.86,2-1.6-.09-.74-1.13-1.22-2.32-1.08s-2.09,.86-2,1.6Zm11.61,2.61c-.15,.73,.74,1.52,1.99,1.78s2.38-.13,2.52-.86c.15-.73-.74-1.52-1.99-1.78-1.25-.25-2.38,.13-2.52,.86Zm-3.7-3.13c-.09,.74,.81,1.45,2,1.6,1.19,.14,2.23-.34,2.32-1.08s-.81-1.45-2-1.6c-1.19-.14-2.23,.34-2.32,1.08Zm3.81-2.77c.67,.25,1.31,.2,1.43-.12,.12-.32-.33-.78-1-1.03s-1.31-.2-1.43,.12c-.12,.32,.33,.78,1,1.03Zm42.76,63.83c.58-.05,.98-.94,.89-2-.08-1.06-.62-1.88-1.2-1.84-.58,.05-.98,.94-.89,2,.08,1.06,.62,1.88,1.2,1.84Zm-.71,8.84c.07,1.43,.71,2.56,1.42,2.53,.72-.04,1.24-1.23,1.16-2.66-.07-1.43-.71-2.56-1.42-2.53-.71,.04-1.24,1.23-1.16,2.66Zm.95-19.42c.44-.14,.59-.87,.35-1.63-.25-.75-.8-1.25-1.24-1.1-.44,.14-.59,.87-.35,1.63,.25,.75,.8,1.25,1.24,1.1Zm-14.03-24.23c.52-.3,.61-1.1,.21-1.78-.4-.69-1.14-1-1.65-.71-.52,.3-.61,1.1-.21,1.78,.4,.69,1.14,1,1.65,.71Zm18.04,32.79c-.28,.05-.39,.73-.25,1.51,.15,.78,.5,1.37,.78,1.32s.39-.73,.25-1.51c-.15-.78-.5-1.37-.78-1.32Zm-1.92,6.97c.53-.03,.92-.88,.87-1.9-.05-1.02-.52-1.83-1.06-1.8s-.92,.88-.87,1.9c.05,1.02,.52,1.83,1.06,1.8Zm-5.47-14.43c-.69,.15-1.05,1.16-.81,2.25,.24,1.09,.99,1.85,1.68,1.7,.69-.15,1.05-1.16,.81-2.25-.24-1.09-.99-1.85-1.68-1.7Zm6.44,18.68c.05,.94,.34,1.68,.66,1.67,.32-.02,.54-.79,.49-1.73-.05-.94-.34-1.68-.66-1.67s-.54,.79-.49,1.73Zm-.82,2.45c-.64,.03-1.1,1.17-1.03,2.54,.07,1.37,.64,2.46,1.28,2.42,.64-.03,1.1-1.17,1.03-2.54s-.64-2.46-1.28-2.42ZM239.56,25.93c.67-.25,1.12-.71,1-1.03-.12-.32-.76-.37-1.43-.12s-1.12,.71-1,1.03c.12,.32,.76,.37,1.43,.12Zm43.42,42.09c-.86,.42-1.05,1.79-.43,3.05s1.82,1.94,2.68,1.52c.86-.42,1.05-1.79,.43-3.05s-1.82-1.94-2.68-1.52Zm.78-7.6c.43-.25,.46-1.01,.06-1.7-.4-.69-1.07-1.04-1.5-.79-.43,.25-.46,1.01-.06,1.7,.4,.69,1.07,1.04,1.5,.79Zm6.85,12.18c.44-.14,.59-.87,.35-1.63-.25-.75-.8-1.25-1.24-1.1-.44,.14-.59,.87-.35,1.63,.25,.75,.8,1.25,1.24,1.1Zm-11.84-11.19c-.86,.42-1.05,1.79-.43,3.05,.62,1.26,1.82,1.94,2.68,1.52,.86-.42,1.05-1.79,.43-3.05-.62-1.26-1.82-1.94-2.68-1.52Zm4.92,16.74c-.97,.47-1.23,1.95-.58,3.29,.66,1.35,1.97,2.05,2.95,1.58,.97-.47,1.23-1.95,.58-3.29-.66-1.35-1.97-2.05-2.95-1.58Zm3.77-4.37c-.75,.25-1.06,1.35-.69,2.47,.37,1.12,1.27,1.83,2.02,1.58,.75-.25,1.06-1.35,.69-2.47-.37-1.12-1.27-1.83-2.02-1.58Zm.42-6.72c.43-.25,.46-1.01,.06-1.7-.4-.69-1.07-1.04-1.5-.79s-.46,1.01-.06,1.7c.4,.69,1.07,1.04,1.5,.79Zm8.61,18.23c.37-.12,.46-.83,.22-1.58-.25-.75-.75-1.27-1.11-1.15-.37,.12-.46,.83-.22,1.58,.25,.75,.75,1.27,1.11,1.15Zm-100.4,15.84c.72,.04,1.35-1.1,1.42-2.53,.07-1.43-.45-2.62-1.16-2.66-.71-.04-1.35,1.1-1.42,2.53-.07,1.43,.45,2.62,1.16,2.66Zm.71-11.36c.58,.05,1.11-.78,1.2-1.84,.08-1.06-.31-1.96-.89-2-.58-.05-1.11,.78-1.2,1.84-.08,1.06,.31,1.96,.89,2Zm-2.15,1.24c-.53-.03-1.01,.78-1.06,1.8-.05,1.02,.34,1.87,.87,1.9s1.01-.78,1.06-1.8c.05-1.02-.34-1.87-.87-1.9Zm-19-14.45c-6.66,16.24,3.95,40.57,8.21,46.97-2.41-17.04-6.89-35.48-8.21-46.97Zm18.19,8.73c.37,.12,.86-.39,1.11-1.15,.25-.75,.15-1.46-.22-1.58-.37-.12-.86,.39-1.11,1.15-.25,.75-.15,1.46,.22,1.58Zm5.89-12.69c.44,.14,1-.35,1.24-1.1,.25-.75,.09-1.48-.35-1.63-.44-.14-1,.35-1.24,1.1-.25,.75-.09,1.48,.35,1.63Zm-.66,11.62c.69,.15,1.44-.61,1.68-1.7s-.12-2.1-.81-2.25c-.69-.15-1.44,.61-1.68,1.7-.24,1.09,.12,2.1,.81,2.25Zm2.48-6.39c.75,.25,1.65-.46,2.02-1.58,.37-1.12,.06-2.22-.69-2.47-.75-.25-1.65,.46-2.02,1.58-.37,1.12-.06,2.22,.69,2.47Zm-4.99,1.35c.44,.14,1-.35,1.24-1.1,.25-.75,.09-1.48-.35-1.63-.44-.14-1,.35-1.24,1.1-.25,.75-.09,1.48,.35,1.63Zm-30.92,16c.84,22.57,20.42,44.03,22.59,46.31-3.65-8.6-16.11-31.7-22.59-46.31Zm146.6,76.11c-15.63,8.16-46.18,19.58-58.62,26.47,12.16-1.45,45.29-9.19,58.62-26.47Zm-34.14,6.57c8.16-2.38,17.58-6.83,26.14-12.56,9.08-6.08,17.17-13.61,21.73-21.68-6.39,5.02-15.58,11.33-24.61,17.55-8.82,6.08-17.5,12.07-23.26,16.69Zm10.06-17.14c11.12-16.8,17.66-36,18.21-56.91,1.39-6.08,3.21-17.49,.57-28.08-3.29-13.25-12.07-19.96-12.07-19.96,5.63,10.15,15.41,38.94,6.4,73.21-2.62,9.96-7.63,20.62-14.71,30.9-9.43,13.71-22.97,26.68-41.4,36.12-18.43-9.43-31.97-22.41-41.4-36.12-7.08-10.28-12.09-20.94-14.71-30.9-9.02-34.27,.77-63.06,6.4-73.21,0,0-8.78,6.71-12.07,19.96-2.63,10.59-.81,22.01,.57,28.08,.55,20.91,7.09,40.11,18.21,56.91,9.9,14.96,23.46,27.67,38.88,37.25-5.58,2.53-22.48,7.96-35.57,7.89l11.96,7.69s12.12-3.67,27.74-13.02c15.62,9.35,27.74,13.02,27.74,13.02l11.96-7.69c-13.1,.07-29.99-5.36-35.57-7.89,15.42-9.59,28.97-22.3,38.88-37.25Zm-110.08,10.57c13.33,17.27,46.46,25.01,58.62,26.47-12.43-6.89-42.99-18.31-58.62-26.47Zm19.44-11.99c-14.32-16.59-27.67-29.32-36.33-40.19,5.84,20.1,29,36.27,36.33,40.19Zm14.7,18.56c-5.77-4.61-14.44-10.6-23.26-16.69-9.03-6.22-18.21-12.54-24.61-17.55,4.56,8.07,12.65,15.6,21.73,21.68,8.56,5.73,17.98,10.17,26.14,12.56Zm8.34-124.68c.88-.92,.97-2.26,.21-2.99-.76-.73-2.1-.58-2.98,.33-.88,.92-.98,2.26-.21,2.99s2.1,.58,2.98-.33Zm1.6-6.46c.53,.92,1.85,1.14,2.95,.51,1.1-.64,1.56-1.89,1.04-2.81-.53-.92-1.85-1.14-2.95-.51-1.1,.64-1.56,1.89-1.04,2.81Zm3.95-8.21c.86-.5,1.31-1.32,1.01-1.84-.3-.52-1.24-.54-2.1-.04-.86,.5-1.31,1.32-1.01,1.84s1.24,.54,2.1,.04Zm9.05-5.74c.15,.73,1.28,1.11,2.52,.86s2.14-1.05,1.99-1.78c-.15-.73-1.28-1.11-2.52-.86s-2.14,1.05-1.99,1.78Zm-7.79,8.71c.47,.81,1.74,.95,2.84,.31,1.1-.64,1.62-1.81,1.15-2.61-.47-.81-1.74-.95-2.84-.31-1.1,.64-1.62,1.81-1.15,2.61Zm-5.74,1.57c.7-.7,.93-1.61,.5-2.04-.42-.42-1.34-.2-2.04,.5s-.93,1.61-.5,2.04c.42,.42,1.34,.2,2.04-.5Zm14.7-13.8c.83-.31,1.35-.97,1.17-1.47-.19-.5-1.01-.66-1.84-.35-.83,.31-1.35,.97-1.17,1.47,.19,.5,1.01,.66,1.84,.35Zm-5.01,7.7c.35,.86,1.59,1.17,2.77,.69,1.18-.48,1.84-1.57,1.49-2.44-.35-.86-1.59-1.17-2.77-.69s-1.84,1.57-1.49,2.44Zm-.24-3.36c.83-.31,1.35-.97,1.17-1.47s-1.01-.66-1.84-.35c-.83,.31-1.35,.97-1.17,1.47,.19,.5,1.01,.66,1.84,.35Zm-16.21,16.08c.52,.3,1.33-.16,1.83-1.01s.48-1.79-.04-2.09-1.33,.16-1.83,1.01c-.49,.86-.48,1.79,.04,2.09Zm-6.78,9.97c.4-.69,.37-1.45-.06-1.7-.43-.25-1.1,.11-1.5,.79-.4,.69-.37,1.45,.06,1.7s1.1-.11,1.5-.79Zm-4.12,6.64c.4-.69,.37-1.45-.06-1.7s-1.1,.11-1.5,.79c-.4,.69-.37,1.45,.06,1.7,.43,.25,1.1-.11,1.5-.79Zm-1.05,18.38c-1.05-.28-2.2,.67-2.59,2.12-.38,1.45,.16,2.84,1.2,3.12,1.05,.28,2.2-.67,2.59-2.12,.38-1.45-.16-2.84-1.2-3.12Zm2.2-12.06c.86,.42,2.06-.26,2.68-1.52s.43-2.63-.43-3.05c-.86-.42-2.06,.26-2.68,1.52-.62,1.26-.43,2.63,.43,3.05Zm8.57-12.84c.78,.55,2.07,.06,2.88-1.09,.81-1.15,.83-2.53,.04-3.08s-2.07-.06-2.88,1.09c-.81,1.15-.83,2.53-.04,3.08Zm-4.35,6.23c.86,.42,2.06-.26,2.68-1.52,.62-1.26,.43-2.63-.43-3.05s-2.06,.26-2.68,1.52-.43,2.63,.43,3.05Zm2.91-11.73c.4-.69,.3-1.49-.21-1.78-.52-.3-1.25,.02-1.65,.71-.4,.69-.3,1.49,.21,1.78,.52,.3,1.25-.02,1.65-.71Zm-7.96,28.78c.97,.47,2.29-.23,2.95-1.58,.66-1.35,.4-2.82-.58-3.29-.97-.47-2.29,.23-2.95,1.58s-.4,2.82,.58,3.29Zm6.14,70.57c.83,.63,1.86,.66,2.3,.09,.43-.58,.11-1.55-.72-2.18s-1.86-.66-2.3-.09c-.43,.58-.11,1.55,.72,2.18Zm-3.16-13.93c.83-.5,.93-1.86,.22-3.03-.71-1.18-1.95-1.72-2.78-1.23-.83,.5-.93,1.86-.22,3.03,.71,1.18,1.95,1.72,2.78,1.23Zm1.39,9.06c.68-.44,.78-1.51,.21-2.39s-1.58-1.23-2.26-.78-.78,1.51-.21,2.39,1.58,1.23,2.26,.78Zm3-2.75c.79-.64,.72-2.03-.15-3.12-.87-1.08-2.22-1.44-3.01-.8-.79,.64-.72,2.03,.15,3.12s2.22,1.44,3.01,.8Zm-7.09-3.66c.56-.36,.63-1.23,.17-1.95-.46-.71-1.29-1-1.85-.64-.56,.36-.63,1.23-.17,1.95,.46,.71,1.29,1,1.85,.64Zm-4.78-15.12c.77-.21,1.12-1.39,.78-2.64s-1.24-2.09-2.01-1.88c-.77,.21-1.12,1.39-.78,2.64s1.24,2.09,2.01,1.88Zm3.4,6.25c.82-.32,1.07-1.62,.57-2.89-.5-1.28-1.57-2.05-2.39-1.73-.82,.32-1.07,1.62-.57,2.89,.5,1.28,1.57,2.05,2.39,1.73Zm-2.16,2.93c.61-.24,.82-1.13,.49-1.99-.34-.86-1.11-1.37-1.71-1.13-.61,.24-.82,1.13-.49,1.99,.34,.86,1.11,1.37,1.71,1.13Zm25.85,31.79c1.22,.56,2.55,.28,2.96-.61,.41-.9-.25-2.08-1.48-2.63-1.22-.56-2.55-.28-2.96,.61-.41,.9,.25,2.08,1.48,2.63Zm-3,1.31c.88,.37,1.77,.23,1.99-.3,.22-.53-.31-1.26-1.19-1.62-.88-.37-1.77-.23-1.99,.3-.22,.53,.31,1.26,1.19,1.62Zm75.17-77.43c-.35,.07-.51,.75-.36,1.53,.15,.78,.55,1.36,.89,1.29s.51-.75,.36-1.53c-.15-.78-.55-1.36-.89-1.29Zm-74.09,70.06c.42-.89-.25-2.1-1.5-2.69s-2.62-.36-3.04,.53,.25,2.1,1.5,2.69c1.26,.6,2.62,.36,3.04-.53Zm-9.02-10.39c.78-.65,.69-2.05-.21-3.11s-2.25-1.4-3.03-.75c-.78,.65-.69,2.05,.21,3.11,.89,1.07,2.25,1.4,3.03,.75Zm-1.3,7.56c.72,.54,1.63,.54,2.04,0,.4-.54,.15-1.41-.57-1.95s-1.63-.54-2.04,0-.15,1.41,.57,1.95Zm5.68-2.43c.59-.86,.14-2.2-1-2.98s-2.55-.73-3.15,.13-.14,2.2,1,2.98,2.55,.73,3.15-.13Zm-1.4,7.59c.81,.61,1.8,.67,2.2,.13,.4-.54,.07-1.47-.74-2.08-.81-.61-1.8-.67-2.2-.13s-.07,1.47,.74,2.08Zm-25.82-45.15c.29-.02,.48-.67,.41-1.45-.06-.78-.35-1.39-.64-1.36-.29,.02-.48,.67-.41,1.45,.06,.78,.35,1.39,.64,1.36Zm-.55-31.53c-.28-.05-.63,.54-.78,1.32-.15,.78-.04,1.46,.25,1.51s.63-.54,.78-1.32c.15-.78,.04-1.46-.25-1.51Zm.46,9.5c-.32-.02-.62,.73-.66,1.67-.05,.94,.17,1.71,.49,1.73s.62-.73,.66-1.67c.05-.94-.17-1.71-.49-1.73Zm-1.71-5.2c-.35-.07-.75,.51-.89,1.29-.15,.78,.01,1.47,.36,1.53,.35,.07,.75-.51,.89-1.29s-.02-1.47-.36-1.53Zm3.03,9.37c-.64-.03-1.21,1.05-1.28,2.42-.07,1.37,.39,2.51,1.03,2.54,.64,.03,1.21-1.05,1.28-2.42s-.39-2.51-1.03-2.54Zm3.22-8.7c-.28,1.41,.2,2.69,1.07,2.86,.87,.17,1.81-.82,2.09-2.23s-.2-2.69-1.07-2.86-1.81,.82-2.09,2.23Zm-6.82,12.88c.37,.01,.69-.66,.72-1.52,.03-.85-.24-1.55-.6-1.57s-.69,.66-.72,1.52c-.03,.85,.24,1.55,.6,1.57Zm8.01,1.54c1.18,.06,2.2-1.31,2.29-3.07,.09-1.75-.8-3.22-1.97-3.28-1.18-.06-2.2,1.31-2.29,3.07-.09,1.75,.8,3.22,1.97,3.28Zm-4.05,2.26c.02,1.46,.66,2.64,1.44,2.63s1.39-1.2,1.37-2.67c-.02-1.46-.66-2.64-1.44-2.63-.78,0-1.39,1.2-1.37,2.67Zm34.41,64.96c.83,.16,1.58-.12,1.67-.63,.1-.51-.49-1.05-1.31-1.22-.83-.16-1.58,.12-1.68,.63-.1,.51,.49,1.05,1.31,1.22Zm-31.81-53.08c.69-.14,1.05-1.24,.81-2.48-.24-1.23-1-2.12-1.69-1.99s-1.05,1.24-.81,2.48c.24,1.23,1,2.12,1.69,1.99Zm-2.6-4.88c.53-.06,.84-1.09,.7-2.29-.14-1.21-.68-2.13-1.21-2.07-.53,.06-.84,1.09-.7,2.29,.14,1.21,.68,2.13,1.21,2.07Zm.56,8c.42-.09,.62-.78,.45-1.54-.17-.76-.64-1.3-1.06-1.21-.42,.09-.62,.78-.45,1.54s.64,1.3,1.06,1.21Zm-5.63-26.89c-.35-.01-.67,.73-.7,1.66-.04,.93,.22,1.7,.57,1.71s.67-.73,.7-1.66c.04-.93-.22-1.7-.57-1.71Zm1.02,12.29c.44-.04,.74-.75,.68-1.6-.07-.85-.48-1.51-.92-1.47-.44,.04-.74,.75-.68,1.6s.48,1.51,.92,1.47Zm2.22,1.15c.41-.01,.71-.98,.68-2.16-.03-1.18-.39-2.13-.8-2.12-.41,.01-.71,.98-.68,2.16s.39,2.13,.8,2.12Zm-1.16,3.69c.29-.02,.48-.67,.41-1.45-.06-.78-.35-1.39-.64-1.36-.29,.02-.48,.67-.41,1.45,.06,.78,.35,1.39,.64,1.36Zm6.12,15.32c.48-.19,.59-1.04,.25-1.9-.34-.86-1-1.41-1.48-1.22-.48,.19-.59,1.04-.25,1.9s1,1.41,1.48,1.22Zm83.86,18.79c.68,.44,1.7,.09,2.26-.78s.47-1.94-.21-2.39c-.68-.44-1.7-.09-2.26,.78s-.47,1.94,.21,2.39Zm10.83-18.79c.48,.19,1.14-.36,1.48-1.22s.23-1.71-.25-1.9c-.48-.19-1.14,.36-1.48,1.22-.34,.86-.23,1.71,.25,1.9Zm2.57-5.56c.42,.09,.89-.45,1.06-1.21s-.03-1.45-.45-1.54c-.42-.09-.89,.45-1.06,1.21-.17,.76,.03,1.45,.45,1.54Zm-60.23,47.21c.21-.86-.69-1.82-2-2.13-1.31-.31-2.54,.14-2.74,1-.21,.86,.69,1.82,2,2.13,1.31,.31,2.54-.14,2.74-1Zm59.07-54.79c-.69-.14-1.44,.75-1.69,1.99-.24,1.23,.12,2.34,.81,2.48s1.44-.75,1.69-1.99c.24-1.23-.12-2.34-.81-2.48Zm-8.08,21.65c.71-1.18,.61-2.53-.22-3.03s-2.08,.05-2.78,1.23c-.71,1.18-.61,2.53,.22,3.03s2.08-.05,2.78-1.23Zm3.69-6.73c.5-1.28,.25-2.57-.57-2.89s-1.89,.45-2.39,1.73c-.5,1.28-.25,2.57,.57,2.89,.82,.32,1.89-.45,2.39-1.73Zm-1.92,9.97c.46-.71,.39-1.59-.17-1.95-.56-.36-1.38-.07-1.85,.64-.46,.71-.39,1.59,.17,1.95,.56,.36,1.38,.07,1.85-.64Zm4.94-16.36c.34-1.25,0-2.43-.78-2.64s-1.67,.63-2.01,1.88,0,2.43,.78,2.64,1.67-.63,2.01-1.88Zm8.85-26.17c-.04-.93-.35-1.67-.7-1.66s-.61,.78-.57,1.71c.04,.93,.35,1.67,.7,1.66s.61-.78,.57-1.71Zm-1.92,3.36c-.37,.01-.64,.72-.6,1.57,.03,.85,.36,1.53,.72,1.52s.64-.72,.6-1.57c-.03-.85-.36-1.53-.72-1.52Zm-2.64,11.81c.14-1.21-.17-2.23-.7-2.29-.53-.06-1.07,.87-1.21,2.07s.17,2.23,.7,2.29c.53,.06,1.07-.87,1.21-2.07Zm2.84-4.53c.44,.04,.85-.62,.92-1.47,.07-.85-.23-1.57-.68-1.6-.44-.04-.85,.62-.92,1.47s.23,1.57,.68,1.6Zm-2.45,9.49c.29,.02,.58-.59,.64-1.36,.06-.78-.12-1.42-.41-1.45-.29-.02-.58,.59-.64,1.36-.06,.78,.12,1.42,.41,1.45Zm1.39-4.65c.29,.02,.58-.59,.64-1.36,.06-.78-.12-1.42-.41-1.45-.29-.02-.58,.59-.64,1.36-.06,.78,.12,1.42,.41,1.45Zm-1.04-7.96c-.41-.01-.76,.94-.8,2.12-.03,1.18,.27,2.14,.68,2.16s.76-.94,.8-2.12c.03-1.18-.27-2.14-.68-2.16Zm-8.28,29.71c.61,.24,1.37-.27,1.71-1.13,.34-.86,.12-1.76-.49-1.99-.61-.24-1.37,.27-1.71,1.13-.34,.86-.12,1.76,.49,1.99Zm-33.52,38.75c-.06-.83-1.16-1.42-2.46-1.33-1.29,.1-2.29,.85-2.23,1.69,.06,.83,1.16,1.42,2.46,1.33s2.29-.85,2.23-1.69Zm25.9-29.94c.87-1.08,.94-2.48,.15-3.12-.79-.64-2.14-.28-3.01,.8s-.94,2.48-.15,3.12,2.14,.28,3.01-.8Zm-20.45,29.16c.83-.16,1.41-.71,1.31-1.22-.1-.51-.85-.79-1.67-.63-.83,.16-1.41,.71-1.31,1.22,.1,.51,.85,.79,1.67,.63Zm-8.14,6.86c.61-.05,1.08-.35,1.06-.68s-.54-.56-1.15-.51c-.61,.05-1.08,.35-1.06,.68,.03,.33,.54,.56,1.15,.51Zm11.83-15.68c-.41-.9-1.73-1.17-2.96-.61s-1.89,1.74-1.48,2.63c.41,.9,1.73,1.17,2.96,.61,1.22-.56,1.89-1.74,1.48-2.63Zm-27.7,15.68c.61,.05,1.13-.18,1.15-.51,.03-.33-.45-.63-1.06-.68s-1.13,.18-1.15,.51c-.03,.33,.45,.63,1.06,.68Zm-3.81-3.09c.81,.16,1.55-.07,1.63-.5s-.51-.92-1.32-1.08c-.81-.16-1.55,.07-1.63,.5s.51,.92,1.32,1.08Zm5.81-2.63c.06-.83-.93-1.59-2.23-1.69-1.29-.1-2.39,.49-2.46,1.33-.06,.83,.93,1.59,2.23,1.69,1.29,.1,2.39-.49,2.46-1.33Zm20.99-5.03c-.21-.86-1.43-1.31-2.74-1-1.31,.31-2.2,1.27-2,2.13s1.43,1.31,2.74,1c1.31-.31,2.2-1.27,2-2.13Zm17.21-19.51c.89-1.07,.99-2.46,.21-3.11-.78-.65-2.14-.32-3.03,.75-.89,1.07-.99,2.46-.21,3.11s2.14,.32,3.03-.75Zm-10.97,18.52c.88-.37,1.41-1.09,1.19-1.62-.22-.53-1.11-.66-1.99-.3-.88,.37-1.41,1.09-1.19,1.62s1.11,.66,1.99,.3Zm9.24-10.21c.72-.54,.98-1.42,.57-1.95-.4-.54-1.32-.54-2.04,0-.72,.54-.98,1.42-.57,1.95,.4,.54,1.32,.54,2.04,0Zm4.21-5.66c.83-.63,1.16-1.6,.72-2.18-.43-.58-1.46-.54-2.3,.09-.83,.63-1.16,1.6-.73,2.18s1.46,.54,2.3-.09Zm-9.98,6.32c-.42-.89-1.79-1.13-3.04-.53s-1.93,1.81-1.5,2.69,1.79,1.13,3.04,.53,1.93-1.81,1.5-2.69Zm1.49,4.5c.81-.61,1.15-1.54,.74-2.08-.4-.54-1.39-.48-2.2,.13-.81,.61-1.15,1.54-.74,2.08,.4,.54,1.39,.48,2.2-.13Zm2.75-10.44c-.59-.86-2-.92-3.15-.13-1.15,.79-1.6,2.12-1,2.98,.59,.86,2,.92,3.15,.13s1.6-2.12,1-2.98Zm-18.87-54.18s.01-.06,.02-.09l.05-.26c.02-.1,.04-.19,.06-.29,.02-.1,.04-.21,.06-.31,.02-.1,.04-.21,.06-.31,.02-.1,.04-.2,.06-.3,.02-.09,.04-.19,.06-.28,.02-.08,.03-.16,.05-.25,.07-.34-.15-.7-.48-.81,0,0-.01,0-.02,0-.29-.08-.6,.03-.77,.27,0,0-.1,.19-.16,.29-.02,.06-.09,.04-.08-.01,0,0,0,0,0,0,.06-1.16,.1-2.32,.1-3.49,0-.96-1.39-1.08-1.56-.14l-.02,.13c0,.06-.08,.06-.09,0-.34-2.35-.91-4.55-1.71-6.49-.4,.31-.8,.53-1.22,.63,.68,2.35,1.33,5.17,1.53,8.08,0,.09-.09,.09-.09,.02h0c-.56-2.9-1.19-6.01-1.91-8.12-.24,.24-.53,.33-.83,.33,.24,1.38,.58,3.24,.91,4.8,.01,.05-.07,.07-.08,.02-.7-2.28-1.51-4.66-2.19-6.3-.38,.34-.83,.5-1.38,.44,.89,3.06,1.81,6,2.54,8.77,.03,.11-.13,.15-.16,.05-1.44-3.88-2.88-7.37-4.33-9.61-.31,.51-.88,.8-1.49,.89l3.08,7.74c.04,.1-.1,.16-.15,.08-1.91-2.97-3.73-5.4-5.43-7.09-.35,.84-.97,1.35-1.78,1.63,2.35,3.07,5.27,6.97,6.61,8.92,.06,.09-.07,.18-.14,.1-2.72-3.31-5.31-5.59-7.78-6.88-.25,.68-.74,1.16-1.4,1.5,2.24,1.67,4.28,3.28,6.01,4.79,.08,.07,0,.19-.1,.14-2.23-1.19-4.29-2.15-6.11-2.77-.34,.58-.86,1.1-1.52,1.58,2.67,1.34,6.1,2.7,8.94,4.32,.09,.05,.02,.19-.08,.15-3.37-1.45-6.48-2.34-9.35-2.68,.19,.58-.24,1.5-1.11,2.47,4.52,.95,7.73,2.01,10.05,3.14,.09,.04,.05,.18-.05,.16l-10.36-1.59c.22,.68,.08,1.47-.47,2.4l6.51,.77c.1,.01,.1,.17,0,.17l-5.72,.29c.11,.55-.02,1.21-.38,1.91l8.27-.43c.07,0,.1,.07,.03,.08l-6.31,.82c.29,.39,.45,.93,.46,1.58l6.85-.77c.08-.02,.11,.07,.03,.09l-2.08,.56c.27,.3,.4,.7,.44,1.18l2.7-.3s.08,.03,.03,.06l-.52,.41c-.1,.08-.03,.24,.09,.23l3.07-.32c.09,0,.15,.07,.12,.16-.14,.37-.6,1.48-2.25,5.16-.71,1.57-1.57,2.69-3.65,3.86-2.16,1.22-3.49,1.24-3.44,3.26,.01,.67,.79,2.67,.55,3.28,5.4-7.19,12.05-6.66,16.41-6.31,.62,.05,1.26,.07,1.81,.04,1.52,.02,2.34-.95,1.99-2.18-.34-1.31-1.13-3.97-1.69-5.89l-.47-1.71c.12,.05,.24,.11,.37,.16-.27-.82-.42-1.7-.42-2.61,0-.21,0-.44,.02-.65,3.48-.9,8.34-.52,13.93,.61,.15,.03,.22-.19,.08-.25-3.48-1.35-7.12-2.1-11.06-2.26-.12,0-.12-.15,0-.15,3.25-.18,6.82,.18,10.95,1.58-3.65-2.43-7.89-3.33-12.54-3.48,0,0,.78-3.1,1.01-4.18,.06-.27-.09-.56-.36-.63,0,0-.01,0-.02,0-.1-.02-.21-.01-.31,.02-.05,.02-.09,.05-.14,.08-.02,.02-.04,.03-.06,.05-.01,.01-.04,.04-.06,.03,0,0,0-.03,0-.05,0-.01,0-.03,0-.04Zm-5.77,8.07c-.77,.06-1.44-.46-1.49-1.15-.05-.69,.54-1.29,1.31-1.35,.77-.06,1.44,.46,1.49,1.15,.05,.69-.54,1.3-1.32,1.35Z"/>
  

</svg>